<svg width="48" height="48" viewBox="0 0 48 48" fill="none" xmlns="http://www.w3.org/2000/svg">
<rect width="48" height="48" fill="white"/>
<path fill-rule="evenodd" clip-rule="evenodd" d="M18.3959 0.902039C18.8236 0.416913 19.4879 0.2138 20.1138 0.376809C23.9164 1.36718 29.7598 3.9402 34.6834 8.52852C39.6432 13.151 43.7043 19.8615 43.7043 29.0138C43.7043 32.6356 42.8914 37.068 40.0779 40.7427C37.2185 44.4778 32.4756 47.1905 25.1169 47.6444L25.0972 47.6458C15.2922 48.1378 8.40558 43.0436 5.63862 36.024C2.89712 29.0688 4.2736 20.4147 10.4537 13.8478C10.7843 13.4965 11.2476 13.3007 11.7299 13.3086C12.2122 13.3164 12.6689 13.5271 12.9879 13.8889L17.3288 18.8122C18.9158 15.9798 19.6878 13.5107 19.8042 11.0405C19.9226 8.52797 19.3695 5.87196 18.09 2.67225C17.8499 2.07172 17.9681 1.38717 18.3959 0.902039ZM18.2235 26.9744C18.2235 25.5543 19.3747 24.403 20.7949 24.403C22.2151 24.403 23.3664 25.5543 23.3664 26.9744C23.3664 28.3946 22.2151 29.5459 20.7949 29.5459C19.3747 29.5459 18.2235 28.3946 18.2235 26.9744ZM31.9007 27.408C32.5701 26.7385 32.5701 25.6531 31.9007 24.9836C31.2312 24.3141 30.1458 24.3141 29.4763 24.9836L18.2192 36.2407C17.5497 36.9103 17.5497 37.9958 18.2192 38.665C18.8886 39.3346 19.9741 39.3346 20.6435 38.665L31.9007 27.408ZM27.3398 36.6744C27.3398 35.2539 28.4911 34.1028 29.9113 34.1028C31.3314 34.1028 32.4827 35.2539 32.4827 36.6744C32.4827 38.0945 31.3314 39.2458 29.9113 39.2458C28.4911 39.2458 27.3398 38.0945 27.3398 36.6744Z" fill="#600808"/>
</svg>
